# Blender v2.82 (sub 7) OBJ File: ''
# www.blender.org
mtllib backround_1.mtl
o Plane
v 0.000000 1.000000 1.000000
v -0.000000 -1.000000 1.000000
v 0.000000 1.000000 -1.000000
v -0.000000 -1.000000 -1.000000
v 0.000000 4.200000 1.000000
v 0.000000 2.200000 1.000000
v 0.000000 4.200000 -1.000000
v 0.000000 2.200000 -1.000000
v 0.000000 7.399999 1.000000
v 0.000000 5.399999 1.000000
v 0.000000 7.399999 -1.000000
v 0.000000 5.399999 -1.000000
v 0.000000 10.599998 1.000000
v 0.000000 8.599998 1.000000
v 0.000000 10.599998 -1.000000
v 0.000000 8.599998 -1.000000
v 0.000001 13.799998 1.000000
v 0.000001 11.799998 1.000000
v 0.000001 13.799998 -1.000000
v 0.000001 11.799998 -1.000000
vt 0.000000 0.000000
vt 1.000000 0.000000
vt 1.000000 1.000000
vt 0.000000 1.000000
vt 0.000000 0.000000
vt 1.000000 0.000000
vt 1.000000 1.000000
vt 0.000000 1.000000
vt 0.000000 0.000000
vt 1.000000 0.000000
vt 1.000000 1.000000
vt 0.000000 1.000000
vt 0.000000 0.000000
vt 1.000000 0.000000
vt 1.000000 1.000000
vt 0.000000 1.000000
vt 0.000000 0.000000
vt 1.000000 0.000000
vt 1.000000 1.000000
vt 0.000000 1.000000
vn 1.0000 -0.0000 0.0000
usemtl None
s off
f 1/1/1 2/2/1 4/3/1 3/4/1
f 5/5/1 6/6/1 8/7/1 7/8/1
f 9/9/1 10/10/1 12/11/1 11/12/1
f 13/13/1 14/14/1 16/15/1 15/16/1
f 17/17/1 18/18/1 20/19/1 19/20/1
o Cube.001_Cube.002
v -3.000000 -1.640000 4.879999
v -3.000000 14.360000 4.879999
v -3.000000 -1.640000 -4.879999
v -3.000000 14.360000 -4.879999
v -1.000000 -1.640000 4.879999
v -1.000000 14.360000 4.879999
v -1.000000 -1.640000 -4.879999
v -1.000000 14.360000 -4.879999
vt 0.375000 0.000000
vt 0.625000 0.000000
vt 0.625000 0.250000
vt 0.375000 0.250000
vt 0.625000 0.500000
vt 0.375000 0.500000
vt 0.625000 0.750000
vt 0.375000 0.750000
vt 0.625000 1.000000
vt 0.375000 1.000000
vt 0.125000 0.500000
vt 0.125000 0.750000
vt 0.875000 0.500000
vt 0.875000 0.750000
vn -1.0000 0.0000 0.0000
vn 0.0000 0.0000 -1.0000
vn 1.0000 0.0000 0.0000
vn 0.0000 0.0000 1.0000
vn 0.0000 -1.0000 0.0000
vn 0.0000 1.0000 0.0000
usemtl None
s off
f 21/21/2 22/22/2 24/23/2 23/24/2
f 23/24/3 24/23/3 28/25/3 27/26/3
f 27/26/4 28/25/4 26/27/4 25/28/4
f 25/28/5 26/27/5 22/29/5 21/30/5
f 23/31/6 27/26/6 25/28/6 21/32/6
f 28/25/7 24/33/7 22/34/7 26/27/7
o Cube_Cube.001
v -2.300000 -1.640000 2.500000
v -2.300000 14.360000 2.500000
v -2.300000 -1.640000 -2.500000
v -2.300000 14.360000 -2.500000
v -0.300000 -1.640000 2.500000
v -0.300000 14.360000 2.500000
v -0.300000 -1.640000 -2.500000
v -0.300000 14.360000 -2.500000
vt 0.375000 0.000000
vt 0.625000 0.000000
vt 0.625000 0.250000
vt 0.375000 0.250000
vt 0.625000 0.500000
vt 0.375000 0.500000
vt 0.625000 0.750000
vt 0.375000 0.750000
vt 0.625000 1.000000
vt 0.375000 1.000000
vt 0.125000 0.500000
vt 0.125000 0.750000
vt 0.875000 0.500000
vt 0.875000 0.750000
vn -1.0000 0.0000 0.0000
vn 0.0000 0.0000 -1.0000
vn 1.0000 0.0000 0.0000
vn 0.0000 0.0000 1.0000
vn 0.0000 -1.0000 0.0000
vn 0.0000 1.0000 0.0000
usemtl None
s off
f 29/35/8 30/36/8 32/37/8 31/38/8
f 31/38/9 32/37/9 36/39/9 35/40/9
f 35/40/10 36/39/10 34/41/10 33/42/10
f 33/42/11 34/41/11 30/43/11 29/44/11
f 31/45/12 35/40/12 33/42/12 29/46/12
f 36/39/13 32/47/13 30/48/13 34/41/13
