<?xml version="1.0" encoding="utf-8"?>
<!-- Generator: Adobe Illustrator 23.0.6, SVG Export Plug-In . SVG Version: 6.00 Build 0)  -->
<svg version="1.1" id="Ebene_1" xmlns="http://www.w3.org/2000/svg"  x="0px" y="0px" viewBox="0 0 257.6 108.8">
<style type="text/css">
	.st0{fill:#666666;}
</style>
<g>
	<path d="M29.9,33.8c0,8.8-6.7,12-16.4,12H2V3.6h9.8c10.2,0,16.3,3.3,16.3,10.6c0,5.3-3.7,8.4-7.9,9.3
		C25.2,24.3,29.9,26.7,29.9,33.8z M7.2,7.8v13.8h6.9c4.8,0,8.5-2.5,8.5-7.1c0-5.3-3.8-6.8-10.2-6.8H7.2V7.8z M24.3,33.8
		c0-6-4.4-8.1-9.6-8.1H7.3v15.8h6.3C19.9,41.5,24.3,40,24.3,33.8z"/>
	<path d="M62.9,42.9l-1.2,3.6c-3.1-0.4-5.2-1.8-6-5c-2.2,3.4-5.6,5-9.7,5c-6.4,0-10.2-4-10.2-9.8c0-6.9,5.2-10.6,14-10.6h5.3v-2.6
		c0-4.8-2.3-6.6-6.9-6.6c-2.5,0-5.4,0.6-8.7,1.8l-1.3-3.8c3.9-1.5,7.4-2.2,10.9-2.2c7.7,0,11.2,3.9,11.2,10.6v15
		C60.2,41.4,61.2,42.3,62.9,42.9z M55,37.4v-7.7h-4.6c-6,0-9.2,2.3-9.2,6.9c0,3.9,2,6.1,5.9,6.1C50.6,42.6,53.1,40.8,55,37.4z"/>
	<path d="M95.8,45.8h-4.4L91,40.6c-2.4,3.9-5.5,6-10.1,6c-5.7,0-9-3.6-9-9.9V13.6h5.2v22.6c0,4.6,1.6,6.3,5.3,6.3s6.4-2.4,8.4-5.8
		V13.6H96v32.2C96,45.8,95.8,45.8,95.8,45.8z"/>
	<path d="M132,22.7v23.1h-5.2V23.4c0-5-2.1-6.6-5.4-6.6c-3.7,0-6.3,2.4-8.5,5.9v23.1h-5.2V0.6l5.2-0.6v18.2c2.3-3.3,5.6-5.4,9.8-5.4
		C128.6,12.8,132,16.6,132,22.7z"/>
	<path d="M167.7,42.9l-1.2,3.6c-3.1-0.4-5.2-1.8-6-5c-2.2,3.4-5.6,5-9.7,5c-6.4,0-10.2-4-10.2-9.8c0-6.9,5.2-10.6,14-10.6h5.3v-2.6
		c0-4.8-2.3-6.6-6.9-6.6c-2.5,0-5.4,0.6-8.7,1.8l-1.3-3.8c3.9-1.5,7.4-2.2,10.9-2.2c7.7,0,11.2,3.9,11.2,10.6v15
		C165,41.4,166,42.3,167.7,42.9z M159.9,37.4v-7.7h-4.6c-6,0-9.2,2.3-9.2,6.9c0,3.9,2,6.1,5.9,6.1C155.5,42.6,158,40.8,159.9,37.4z"
		/>
	<path d="M200.6,45.8h-4.4l-0.4-5.2c-2.4,3.9-5.5,6-10.1,6c-5.7,0-9-3.6-9-9.9V13.6h5.2v22.6c0,4.6,1.6,6.3,5.3,6.3s6.4-2.4,8.4-5.8
		V13.6h5.2v32.2C200.8,45.8,200.6,45.8,200.6,45.8z"/>
	<path d="M231.9,16.5l-2.2,3.3c-2.9-1.9-5.3-2.8-8.4-2.8c-3.8,0-6.3,1.8-6.3,4.5s1.8,4,7.2,5.4c6.8,1.8,10.6,4.4,10.6,10
		c0,6.6-6,9.7-12.5,9.7c-5.5,0-9.3-1.8-12.1-4.2l2.8-3.1c2.6,2,5.6,3.2,9.2,3.2c4.3,0,7.2-2,7.2-5.2c0-3.4-1.7-4.6-8-6.3
		c-6.9-1.8-9.7-4.7-9.7-9.3c0-5.1,4.8-8.8,11.4-8.8C225.5,12.8,228.9,14.2,231.9,16.5z"/>
	<path d="M246.2,42.6c0,2.2-1.7,4-4,4c-2.2,0-3.9-1.8-3.9-4c0-2.1,1.7-3.9,3.9-3.9C244.6,38.6,246.2,40.4,246.2,42.6z"/>
</g>
<g>
	<path class="st0" d="M35.9,107l-1.6-19.3c-0.6-6.7-1.1-13.9-1.2-17.5l-9.5,32h-5l-9.9-32c-0.1,4.8-0.4,11.6-1,17.9l-1.5,19h-5
		l3.6-42.2h7.2L21.3,96l8.8-31.2h7.2l3.7,42.2H35.9z"/>
	<path class="st0" d="M77.7,90.8c0,10.1-5.2,16.9-14.2,16.9S49.3,101.2,49.3,91c0-10.1,5.2-16.9,14.2-16.9
		C72.6,74,77.7,80.5,77.7,90.8z M54.8,91c0,8.5,3.1,12.6,8.7,12.6c5.6,0,8.7-4.1,8.7-12.8c0-8.5-3.1-12.6-8.7-12.6
		C58,78.2,54.8,82.3,54.8,91z"/>
	<path class="st0" d="M111.8,107h-4.5l-0.6-4.5c-2,3.2-5.3,5.3-9.4,5.3c-7.8,0-12.2-6.6-12.2-16.8c0-9.9,4.7-17,12.6-17
		c3.9,0,6.7,1.8,8.8,4.1V61.1l5.2,0.6V107z M106.7,98.6V82.5c-2-2.6-4.3-4.4-7.7-4.4c-5,0-8.2,4.2-8.2,12.8s2.8,12.7,7.7,12.7
		C102.2,103.7,104.5,101.8,106.7,98.6z"/>
	<path class="st0" d="M143.1,107l-0.4-5.2c-2.4,3.9-5.5,6-10.1,6c-5.7,0-9-3.6-9-9.9V74.8h5.2v22.6c0,4.6,1.6,6.3,5.3,6.3
		s6.4-2.4,8.4-5.8V74.8h5.2V107H143.1z"/>
	<path class="st0" d="M166.5,103.5c0.8,0,1.5-0.1,2.1-0.4l1.3,3.6c-1.4,0.7-2.9,1-4.5,1c-3.9,0-6.2-2.3-6.2-6.9V61.7l5.2-0.6v39.6
		C164.3,102.6,164.9,103.5,166.5,103.5z"/>
	<path class="st0" d="M200.6,92.7h-20.8c0.6,7.8,4.1,10.9,9,10.9c3.3,0,5.6-0.9,8.5-2.9l2.3,3.1c-3.1,2.5-6.7,4.1-11.1,4.1
		c-8.9,0-14.1-6.3-14.1-16.6c0-10.1,5-17.2,13.3-17.2c8.7,0,13.1,6.1,13.1,15.8C200.7,91,200.7,92,200.6,92.7z M195.6,88.4
		c0-6.5-2.6-10.2-7.9-10.2c-4.5,0-7.5,3.2-7.9,10.7h15.8V88.4z"/>
</g>
</svg>
