<?xml version="1.0" encoding="utf-8"?>
<!-- Generator: Adobe Illustrator 24.1.0, SVG Export Plug-In . SVG Version: 6.00 Build 0)  -->
<svg version="1.1" id="Ebene_1" xmlns="http://www.w3.org/2000/svg" xmlns:xlink="http://www.w3.org/1999/xlink" x="0px" y="0px"
	 viewBox="0 0 726.75 384.33" style="enable-background:new 0 0 726.75 384.33;" xml:space="preserve">
<style type="text/css">
	.st0{fill:none;stroke:#585858;stroke-width:20;stroke-miterlimit:10;}
</style>
<path class="st0" d="M477.59,253.33c0,62.45-50.63,113.08-113.08,113.08s-113.07-50.63-113.07-113.08"/>
<path class="st0" d="M251.44,27.18c62.45,0,113.07,50.63,113.07,113.08s-50.63,113.07-113.07,113.07"/>
<path class="st0" d="M477.59,27.18c-62.45,0-113.08,50.63-113.08,113.08s50.63,113.07,113.08,113.07"/>
<path class="st0" d="M703.74,263.57c0-62.45-50.63-113.07-113.08-113.07s-113.08,50.63-113.08,113.07"/>
<path class="st0" d="M251.44,263.57c0-62.45-50.63-113.07-113.07-113.07S25.29,201.12,25.29,263.57"/>
</svg>
